<svg width="264.567" height="264.567" viewBox="0 0 70 70" xmlns:xlink="http://www.w3.org/1999/xlink" xmlns="http://www.w3.org/2000/svg"><defs><linearGradient xlink:href="#prefix__a" id="prefix__e" gradientUnits="userSpaceOnUse" x1="5310.236" y1="2003.149" x2="5574.803" y2="1738.583"/><linearGradient id="prefix__a"><stop offset="0" stop-color="#6900ff"/><stop offset="1" stop-color="#c800ff"/></linearGradient><linearGradient xlink:href="#prefix__b" id="prefix__f" gradientUnits="userSpaceOnUse" x1="5490.939" y1="1690.164" x2="5394.1" y2="2051.569"/><linearGradient id="prefix__b"><stop offset="0" stop-color="#ffa915"/><stop offset="1" stop-color="#ff813e"/></linearGradient><linearGradient xlink:href="#prefix__c" id="prefix__g" gradientUnits="userSpaceOnUse" x1="5394.101" y1="1690.163" x2="5490.939" y2="2051.569"/><linearGradient id="prefix__c"><stop offset="0" stop-color="#006efc"/><stop offset="1" stop-color="#5208ff"/></linearGradient><linearGradient xlink:href="#prefix__d" id="prefix__h" gradientUnits="userSpaceOnUse" x1="5310.236" y1="1738.582" x2="5574.803" y2="2003.149"/><linearGradient id="prefix__d"><stop offset="0" stop-color="#ff3f5e"/><stop offset="1" stop-color="#ff331d"/></linearGradient></defs><path style="font-variation-settings:normal;-inkscape-stroke:none" fill="none" d="M0 0h70v70H0z"/><path transform="translate(-1645.004 -542.5) scale(.30868)" d="M5442.52 1757.48l98.194 170.079h-196.39z" fill="url(#prefix__e)"/><path transform="matrix(.26733 .15434 -.15434 .26733 -1131.175 -1305.13)" d="M5442.52 1757.48l98.194 170.079h-196.39z" fill="url(#prefix__f)"/><path transform="matrix(.15434 .26733 -.26733 .15434 -304.871 -1708.673)" d="M5442.52 1757.48l98.194 170.079h-196.39z" fill="url(#prefix__g)"/><path transform="matrix(0 .30868 -.30868 0 612.501 -1645)" d="M5442.52 1757.48l98.194 170.079h-196.39z" fill="url(#prefix__h)"/></svg>